<?xml version="1.0" encoding="UTF-8" standalone="no"?>
<!-- Created with Inkscape (http://www.inkscape.org/) -->

<svg
   width="95.444mm"
   height="10.195276mm"
   viewBox="0 0 95.444 10.195276"
   version="1.1"
   id="svg1"
   inkscape:version="1.4 (e7c3feb1, 2024-10-09)"
   sodipodi:docname="texto-header.svg"
   xmlns:inkscape="http://www.inkscape.org/namespaces/inkscape"
   xmlns:sodipodi="http://sodipodi.sourceforge.net/DTD/sodipodi-0.dtd"
   xmlns="http://www.w3.org/2000/svg"
   xmlns:svg="http://www.w3.org/2000/svg">
  <sodipodi:namedview
     id="namedview1"
     pagecolor="#ffffff"
     bordercolor="#000000"
     borderopacity="0.25"
     inkscape:showpageshadow="2"
     inkscape:pageopacity="0.0"
     inkscape:pagecheckerboard="0"
     inkscape:deskcolor="#d1d1d1"
     inkscape:document-units="mm"
     inkscape:zoom="1.7826535"
     inkscape:cx="166.32509"
     inkscape:cy="23.840865"
     inkscape:window-width="1280"
     inkscape:window-height="800"
     inkscape:window-x="0"
     inkscape:window-y="0"
     inkscape:window-maximized="0"
     inkscape:current-layer="text2" />
  <defs
     id="defs1">
    <rect
       x="198.80302"
       y="326.16119"
       width="132.7942"
       height="21.74408"
       id="rect6" />
    <rect
       x="213.55794"
       y="375.86194"
       width="228.31284"
       height="59.019646"
       id="rect4" />
    <rect
       x="47.051079"
       y="399.93417"
       width="643.74432"
       height="297.27728"
       id="rect1" />
  </defs>
  <g
     inkscape:label="Layer 1"
     inkscape:groupmode="layer"
     id="layer1"
     transform="translate(-53.199437,-83.583012)">
    <text
       xml:space="preserve"
       transform="scale(0.26458333)"
       id="text1"
       style="font-size:17.7333px;line-height:0.8;font-family:Manjari;-inkscape-font-specification:Manjari;text-align:center;writing-mode:lr-tb;direction:ltr;white-space:pre;shape-inside:url(#rect1);fill:#333652" />
    <g
       id="text2"
       style="font-size:4.69194px;line-height:0;font-family:Manjari;-inkscape-font-specification:Manjari;text-align:center;text-anchor:middle;fill:#333652;stroke-width:0.264583"
       aria-label="¡CONOCE MAZATLÁN COMO UN LOCAL!&#10;&#10;TODOS LOS TOURS EN UN SÓLO LUGAR">
      <path
         style="font-weight:bold;font-size:4.93889px;line-height:0.8;font-family:Poppins;-inkscape-font-specification:'Poppins Bold';fill:#29577e"
         d="m 53.703204,85.578329 q 0.217311,0 0.3556,0.13335 0.143228,0.128411 0.143228,0.321028 0,0.197555 -0.143228,0.330905 -0.138289,0.13335 -0.3556,0.13335 -0.22225,0 -0.365478,-0.13335 -0.138289,-0.13335 -0.138289,-0.330905 0,-0.192617 0.138289,-0.321028 0.143228,-0.13335 0.365478,-0.13335 z m -0.370417,1.264355 h 0.716139 l 0.09878,2.365729 h -0.913695 z m 1.496485,-0.1778 q 0,-0.513644 0.22225,-0.913694 0.22225,-0.404989 0.617361,-0.627239 0.40005,-0.227189 0.903817,-0.227189 0.617361,0 1.056922,0.325967 0.439561,0.325966 0.587728,0.889 h -0.928511 q -0.103717,-0.217311 -0.296334,-0.330906 -0.187677,-0.113594 -0.429683,-0.113594 -0.390172,0 -0.632178,0.271639 -0.242006,0.271639 -0.242006,0.726016 0,0.454378 0.242006,0.726017 0.242006,0.271639 0.632178,0.271639 0.242006,0 0.429683,-0.113594 0.192617,-0.113595 0.296334,-0.330906 h 0.928511 q -0.148167,0.563034 -0.587728,0.889 -0.439561,0.321028 -1.056922,0.321028 -0.503767,0 -0.903817,-0.22225 -0.395111,-0.227189 -0.617361,-0.627239 -0.22225,-0.40005 -0.22225,-0.913695 z m 5.546369,1.773062 q -0.48895,0 -0.898878,-0.227189 -0.404989,-0.227189 -0.646995,-0.632178 -0.237067,-0.409928 -0.237067,-0.918633 0,-0.508706 0.237067,-0.913695 0.242006,-0.404989 0.646995,-0.632178 0.409928,-0.227189 0.898878,-0.227189 0.48895,0 0.893939,0.227189 0.409928,0.227189 0.642056,0.632178 0.237066,0.404989 0.237066,0.913695 0,0.508705 -0.237066,0.918633 -0.237067,0.404989 -0.642056,0.632178 -0.404989,0.227189 -0.893939,0.227189 z m 0,-0.770467 q 0.414867,0 0.661811,-0.276578 0.251883,-0.276578 0.251883,-0.730955 0,-0.459317 -0.251883,-0.730956 -0.246944,-0.276578 -0.661811,-0.276578 -0.419806,0 -0.671689,0.271639 -0.246945,0.271639 -0.246945,0.735895 0,0.459316 0.246945,0.735894 0.251883,0.271639 0.671689,0.271639 z m 5.343875,0.735895 h -0.84455 l -1.412522,-2.13854 v 2.13854 h -0.84455 v -3.467101 h 0.84455 l 1.412522,2.148417 v -2.148417 h 0.84455 z m 2.252138,0.03457 q -0.48895,0 -0.898878,-0.227189 -0.404989,-0.227189 -0.646994,-0.632178 -0.237067,-0.409928 -0.237067,-0.918633 0,-0.508706 0.237067,-0.913695 0.242005,-0.404989 0.646994,-0.632178 0.409928,-0.227189 0.898878,-0.227189 0.48895,0 0.893939,0.227189 0.409928,0.227189 0.642056,0.632178 0.237067,0.404989 0.237067,0.913695 0,0.508705 -0.237067,0.918633 -0.237067,0.404989 -0.642056,0.632178 -0.404989,0.227189 -0.893939,0.227189 z m 0,-0.770467 q 0.414867,0 0.661812,-0.276578 0.251883,-0.276578 0.251883,-0.730955 0,-0.459317 -0.251883,-0.730956 -0.246945,-0.276578 -0.661812,-0.276578 -0.419805,0 -0.671689,0.271639 -0.246944,0.271639 -0.246944,0.735895 0,0.459316 0.246944,0.735894 0.251884,0.271639 0.671689,0.271639 z m 2.099024,-1.002595 q 0,-0.513644 0.22225,-0.913694 0.22225,-0.404989 0.617361,-0.627239 0.40005,-0.227189 0.903817,-0.227189 0.617361,0 1.056922,0.325967 0.439562,0.325966 0.587728,0.889 h -0.928511 q -0.103717,-0.217311 -0.296333,-0.330906 -0.187678,-0.113594 -0.429684,-0.113594 -0.390172,0 -0.632178,0.271639 -0.242005,0.271639 -0.242005,0.726016 0,0.454378 0.242005,0.726017 0.242006,0.271639 0.632178,0.271639 0.242006,0 0.429684,-0.113594 0.192616,-0.113595 0.296333,-0.330906 h 0.928511 q -0.148166,0.563034 -0.587728,0.889 -0.439561,0.321028 -1.056922,0.321028 -0.503767,0 -0.903817,-0.22225 -0.395111,-0.227189 -0.617361,-0.627239 -0.22225,-0.40005 -0.22225,-0.913695 z m 4.751209,-1.051983 v 0.701322 h 1.131006 v 0.651934 h -1.131006 v 0.760589 h 1.279173 v 0.676628 h -2.123723 v -3.467101 h 2.123723 v 0.676628 z m 6.800852,-0.676628 v 3.467101 h -0.84455 v -2.079273 l -0.775406,2.079273 H 79.321217 L 78.540872,86.31916 v 2.084212 h -0.84455 v -3.467101 h 0.997656 l 0.972961,2.4003 0.963083,-2.4003 z m 2.765775,2.854678 h -1.293989 l -0.207433,0.612423 H 82.00303 l 1.254478,-3.467101 h 0.977901 l 1.254478,3.467101 h -0.89394 z m -0.217311,-0.651933 -0.429683,-1.269295 -0.424745,1.269295 z m 2.597853,0.572911 h 1.491545 v 0.691445 h -2.449689 v -0.642056 l 1.481667,-2.1336 h -1.481667 v -0.691445 h 2.449689 v 0.642056 z m 4.202998,0.07902 H 89.678065 L 89.470632,88.40337 H 88.58657 l 1.254478,-3.467101 h 0.9779 l 1.254479,3.467101 h -0.89394 z m -0.217311,-0.651933 -0.429684,-1.269295 -0.424744,1.269295 z m 4.193117,-2.202745 v 0.676628 h -0.918634 v 2.790473 h -0.84455 v -2.790473 h -0.918633 v -0.676628 z m 1.269291,2.815167 h 1.106311 v 0.651934 h -1.950861 v -3.467101 h 0.84455 z m 3.669595,0.03951 h -1.293989 l -0.207434,0.612423 h -0.884061 l 1.254478,-3.467101 h 0.9779 l 1.25448,3.467101 h -0.89394 z m -0.217311,-0.651933 -0.429684,-1.269295 -0.424744,1.269295 z m 0.148167,-2.899129 -1.190273,0.498828 v -0.582789 l 1.190273,-0.572911 z m 4.652428,4.163485 h -0.84455 l -1.41252,-2.13854 v 2.13854 h -0.84455 v -3.467101 h 0.84455 l 1.41252,2.148417 v -2.148417 h 0.84455 z m 1.51624,-1.73849 q 0,-0.513644 0.22225,-0.913694 0.22225,-0.404989 0.61737,-0.627239 0.40005,-0.227189 0.90381,-0.227189 0.61736,0 1.05692,0.325967 0.43957,0.325966 0.58773,0.889 h -0.92851 q -0.10372,-0.217311 -0.29633,-0.330906 -0.18768,-0.113594 -0.42969,-0.113594 -0.39017,0 -0.63217,0.271639 -0.24201,0.271639 -0.24201,0.726016 0,0.454378 0.24201,0.726017 0.242,0.271639 0.63217,0.271639 0.24201,0 0.42969,-0.113594 0.19261,-0.113595 0.29633,-0.330906 h 0.92851 q -0.14816,0.563034 -0.58773,0.889 -0.43956,0.321028 -1.05692,0.321028 -0.50376,0 -0.90381,-0.22225 -0.39512,-0.227189 -0.61737,-0.627239 -0.22225,-0.40005 -0.22225,-0.913695 z m 5.54637,1.773062 q -0.48895,0 -0.89887,-0.227189 -0.40499,-0.227189 -0.647,-0.632178 -0.23706,-0.409928 -0.23706,-0.918633 0,-0.508706 0.23706,-0.913695 0.24201,-0.404989 0.647,-0.632178 0.40992,-0.227189 0.89887,-0.227189 0.48895,0 0.89394,0.227189 0.40993,0.227189 0.64206,0.632178 0.23707,0.404989 0.23707,0.913695 0,0.508705 -0.23707,0.918633 -0.23707,0.404989 -0.64206,0.632178 -0.40499,0.227189 -0.89394,0.227189 z m 0,-0.770467 q 0.41487,0 0.66182,-0.276578 0.25188,-0.276578 0.25188,-0.730955 0,-0.459317 -0.25188,-0.730956 -0.24695,-0.276578 -0.66182,-0.276578 -0.4198,0 -0.67168,0.271639 -0.24695,0.271639 -0.24695,0.735895 0,0.459316 0.24695,0.735894 0.25188,0.271639 0.67168,0.271639 z m 6.16867,-2.731206 v 3.467101 h -0.84455 v -2.079273 l -0.7754,2.079273 h -0.68157 l -0.78034,-2.084212 v 2.084212 h -0.84455 v -3.467101 h 0.99765 l 0.97296,2.4003 0.96309,-2.4003 z m 2.24719,3.501673 q -0.48895,0 -0.89887,-0.227189 -0.40499,-0.227189 -0.647,-0.632178 -0.23707,-0.409928 -0.23707,-0.918633 0,-0.508706 0.23707,-0.913695 0.24201,-0.404989 0.647,-0.632178 0.40992,-0.227189 0.89887,-0.227189 0.48895,0 0.89394,0.227189 0.40993,0.227189 0.64206,0.632178 0.23707,0.404989 0.23707,0.913695 0,0.508705 -0.23707,0.918633 -0.23707,0.404989 -0.64206,0.632178 -0.40499,0.227189 -0.89394,0.227189 z m 0,-0.770467 q 0.41487,0 0.66182,-0.276578 0.25188,-0.276578 0.25188,-0.730955 0,-0.459317 -0.25188,-0.730956 -0.24695,-0.276578 -0.66182,-0.276578 -0.4198,0 -0.67169,0.271639 -0.24694,0.271639 -0.24694,0.735895 0,0.459316 0.24694,0.735894 0.25189,0.271639 0.67169,0.271639 z m 4.11903,-2.731206 v 2.074334 q 0,0.31115 0.15311,0.479072 0.15311,0.167922 0.44944,0.167922 0.29633,0 0.45438,-0.167922 0.15804,-0.167922 0.15804,-0.479072 v -2.074334 h 0.84455 v 2.069395 q 0,0.464256 -0.19755,0.785283 -0.19756,0.321028 -0.5334,0.484012 -0.33091,0.162983 -0.74084,0.162983 -0.40993,0 -0.73589,-0.158045 -0.32103,-0.162983 -0.50871,-0.484011 -0.18768,-0.325966 -0.18768,-0.790222 v -2.069395 z m 5.75381,3.467101 h -0.84455 l -1.41252,-2.13854 v 2.13854 h -0.84455 v -3.467101 h 0.84455 l 1.41252,2.148417 v -2.148417 h 0.84455 z m 2.50402,-0.651934 h 1.10631 v 0.651934 h -1.95086 v -3.467101 h 0.84455 z m 3.15101,0.686506 q -0.48895,0 -0.89887,-0.227189 -0.40499,-0.227189 -0.647,-0.632178 -0.23707,-0.409928 -0.23707,-0.918633 0,-0.508706 0.23707,-0.913695 0.24201,-0.404989 0.647,-0.632178 0.40992,-0.227189 0.89887,-0.227189 0.48895,0 0.89394,0.227189 0.40993,0.227189 0.64206,0.632178 0.23707,0.404989 0.23707,0.913695 0,0.508705 -0.23707,0.918633 -0.23707,0.404989 -0.64206,0.632178 -0.40499,0.227189 -0.89394,0.227189 z m 0,-0.770467 q 0.41487,0 0.66182,-0.276578 0.25188,-0.276578 0.25188,-0.730955 0,-0.459317 -0.25188,-0.730956 -0.24695,-0.276578 -0.66182,-0.276578 -0.4198,0 -0.67168,0.271639 -0.24695,0.271639 -0.24695,0.735895 0,0.459316 0.24695,0.735894 0.25188,0.271639 0.67168,0.271639 z m 2.09902,-1.002595 q 0,-0.513644 0.22225,-0.913694 0.22225,-0.404989 0.61736,-0.627239 0.40005,-0.227189 0.90382,-0.227189 0.61736,0 1.05692,0.325967 0.43956,0.325966 0.58773,0.889 h -0.92851 q -0.10372,-0.217311 -0.29633,-0.330906 -0.18768,-0.113594 -0.42969,-0.113594 -0.39017,0 -0.63217,0.271639 -0.24201,0.271639 -0.24201,0.726016 0,0.454378 0.24201,0.726017 0.242,0.271639 0.63217,0.271639 0.24201,0 0.42969,-0.113594 0.19261,-0.113595 0.29633,-0.330906 h 0.92851 q -0.14817,0.563034 -0.58773,0.889 -0.43956,0.321028 -1.05692,0.321028 -0.50377,0 -0.90382,-0.22225 -0.39511,-0.227189 -0.61736,-0.627239 -0.22225,-0.40005 -0.22225,-0.913695 z m 6.06496,1.126067 h -1.29399 l -0.20743,0.612423 h -0.88406 l 1.25448,-3.467101 h 0.9779 l 1.25447,3.467101 h -0.89394 z m -0.21731,-0.651933 -0.42968,-1.269295 -0.42475,1.269295 z m 2.54352,0.612422 h 1.10631 v 0.651934 h -1.95086 v -3.467101 h 0.84455 z m 2.62255,-2.938639 -0.0988,2.365728 h -0.71614 l -0.0988,-2.365728 z m -0.4445,3.630084 q -0.22225,0 -0.36548,-0.128411 -0.13829,-0.13335 -0.13829,-0.325967 0,-0.197556 0.13829,-0.330906 0.14323,-0.13335 0.36548,-0.13335 0.21731,0 0.3556,0.13335 0.14323,0.13335 0.14323,0.330906 0,0.192617 -0.14323,0.325967 -0.13829,0.128411 -0.3556,0.128411 z"
         id="path6" />
      <path
         style="font-weight:bold;font-size:3.88056px;-inkscape-font-specification:'Manjari Bold'"
         d="m 64.803992,91.157764 c 0,-0.05179 0.01832,-0.09601 0.05495,-0.132636 0.03789,-0.03789 0.08274,-0.05684 0.134531,-0.05684 h 0.0019 l 1.89291,-0.01137 h 0.0038 c 0.05179,0 0.09601,0.01895 0.132637,0.05684 0.03789,0.03663 0.05684,0.08085 0.05684,0.132636 0,0.05179 -0.01895,0.09664 -0.05684,0.134531 -0.03663,0.03663 -0.08085,0.05495 -0.132637,0.05495 h -0.0019 l -0.754133,0.0038 -0.0095,2.175236 v 0.0019 c 0,0.05053 -0.01895,0.09411 -0.05684,0.130741 -0.03663,0.03663 -0.08084,0.05495 -0.132636,0.05495 -0.05179,0 -0.09664,-0.01832 -0.134531,-0.05495 -0.03663,-0.03663 -0.05495,-0.08021 -0.05495,-0.130741 v -0.0038 l 0.0095,-2.171446 -0.761711,0.0057 h -0.0019 c -0.05179,0 -0.09664,-0.01832 -0.134531,-0.05495 -0.03663,-0.03789 -0.05495,-0.08274 -0.05495,-0.134531 z m 3.744134,-0.227376 c 0.19327,0 0.37075,0.0379 0.53244,0.113688 0.162953,0.07453 0.304432,0.17748 0.424436,0.308853 0.120004,0.13011 0.212849,0.280431 0.278536,0.450964 0.06569,0.169269 0.09853,0.349275 0.09853,0.540019 0,0.190743 -0.03284,0.370118 -0.09853,0.538124 -0.06442,0.166743 -0.156002,0.313907 -0.274746,0.44149 -0.118741,0.127583 -0.259589,0.227376 -0.422542,0.299379 -0.16169,0.072 -0.340433,0.108004 -0.53623,0.108004 -0.199586,0 -0.380856,-0.036 -0.543809,-0.108004 -0.162953,-0.07327 -0.303168,-0.173691 -0.420646,-0.301274 -0.116215,-0.128847 -0.205902,-0.277273 -0.269062,-0.445279 -0.06316,-0.169269 -0.09474,-0.350539 -0.09474,-0.543809 0,-0.188217 0.03284,-0.366329 0.09853,-0.534335 0.06695,-0.168006 0.159795,-0.317064 0.278536,-0.447174 0.120005,-0.131373 0.26022,-0.234324 0.420647,-0.308853 0.16169,-0.07453 0.337907,-0.111793 0.52865,-0.111793 z m 0.0076,0.384645 c -0.186954,0 -0.352434,0.04863 -0.496439,0.1459 -0.142742,0.09727 -0.255167,0.226113 -0.337275,0.38654 -0.08085,0.159163 -0.121268,0.333485 -0.121268,0.522966 0,0.128847 0.02463,0.252009 0.0739,0.369487 0.04927,0.117478 0.11748,0.222324 0.204639,0.314538 0.08716,0.09095 0.187585,0.162953 0.301274,0.216007 0.114951,0.05179 0.237482,0.07769 0.367592,0.07769 0.13011,0 0.252641,-0.02716 0.367592,-0.08148 0.116215,-0.05432 0.218534,-0.127586 0.306958,-0.219798 0.08969,-0.09221 0.159795,-0.195796 0.210323,-0.310748 0.05053,-0.116215 0.07579,-0.234956 0.07579,-0.356223 0,-0.195797 -0.04295,-0.373908 -0.128847,-0.534335 -0.08463,-0.16169 -0.198955,-0.290537 -0.34296,-0.38654 -0.144005,-0.096 -0.304432,-0.144005 -0.48128,-0.144005 z m 2.474615,-0.358118 h 0.02842 c 0.222324,0 0.417489,0.03916 0.585495,0.117478 0.168006,0.07706 0.308221,0.181901 0.420646,0.314537 0.113689,0.131373 0.198955,0.279168 0.255799,0.443385 0.05811,0.162953 0.08716,0.329695 0.08716,0.500228 0,0.26022 -0.05874,0.492018 -0.176217,0.695393 -0.116215,0.203376 -0.288642,0.363171 -0.517282,0.479386 -0.227376,0.116215 -0.507807,0.174322 -0.841293,0.174322 h -0.08906 l -0.432015,-0.0038 c -0.05053,-0.0013 -0.09474,-0.02085 -0.132636,-0.05874 -0.03663,-0.03789 -0.05495,-0.08337 -0.05495,-0.136426 l 0.01326,-2.324925 c 0,-0.05053 0.01832,-0.09411 0.05495,-0.130741 0.03663,-0.03789 0.08021,-0.05747 0.130742,-0.05874 z m 1.040248,1.364259 c 0,-0.234955 -0.0499,-0.424436 -0.14969,-0.568441 -0.09979,-0.144005 -0.240008,-0.248851 -0.420647,-0.314538 -0.180638,-0.06695 -0.392856,-0.100424 -0.636654,-0.100424 -0.05179,0 -0.103585,6.33e-4 -0.155374,0.0019 -0.05053,0.0013 -0.101686,0.0032 -0.153479,0.0057 l -0.01137,1.949754 0.24443,0.0038 c 0.253904,0 0.476859,-0.03032 0.668866,-0.09095 0.19327,-0.0619 0.343591,-0.16422 0.450963,-0.306959 0.108636,-0.142741 0.162954,-0.336011 0.162954,-0.57981 z m 1.947859,-1.390786 c 0.19327,0 0.37075,0.0379 0.53244,0.113688 0.162953,0.07453 0.304431,0.17748 0.424436,0.308853 0.120004,0.13011 0.212849,0.280431 0.278536,0.450964 0.06569,0.169269 0.09853,0.349275 0.09853,0.540019 0,0.190743 -0.03284,0.370118 -0.09853,0.538124 -0.06443,0.166743 -0.156009,0.313907 -0.274747,0.44149 -0.118741,0.127583 -0.259588,0.227376 -0.422541,0.299379 -0.16169,0.072 -0.340433,0.108004 -0.53623,0.108004 -0.199586,0 -0.380856,-0.036 -0.543809,-0.108004 -0.162953,-0.07327 -0.303168,-0.173691 -0.420646,-0.301274 -0.116215,-0.128847 -0.205902,-0.277273 -0.269062,-0.445279 -0.06316,-0.169269 -0.09474,-0.350539 -0.09474,-0.543809 0,-0.188217 0.03284,-0.366329 0.09853,-0.534335 0.06695,-0.168006 0.159795,-0.317064 0.278536,-0.447174 0.120005,-0.131373 0.26022,-0.234324 0.420647,-0.308853 0.16169,-0.07453 0.337907,-0.111793 0.52865,-0.111793 z m 0.0076,0.384645 c -0.186954,0 -0.352434,0.04863 -0.496439,0.1459 -0.142742,0.09727 -0.255167,0.226113 -0.337275,0.38654 -0.08084,0.159163 -0.121268,0.333485 -0.121268,0.522966 0,0.128847 0.02463,0.252009 0.0739,0.369487 0.04927,0.117478 0.117479,0.222324 0.204638,0.314538 0.08716,0.09095 0.187586,0.162953 0.301274,0.216007 0.114952,0.05179 0.237483,0.07769 0.367593,0.07769 0.130109,0 0.25264,-0.02716 0.367592,-0.08148 0.116215,-0.05432 0.218534,-0.127586 0.306958,-0.219798 0.08969,-0.09221 0.159795,-0.195796 0.210323,-0.310748 0.05053,-0.116215 0.07579,-0.234956 0.07579,-0.356223 0,-0.195797 -0.04295,-0.373908 -0.128846,-0.534335 -0.08464,-0.16169 -0.198955,-0.290537 -0.34296,-0.38654 -0.144005,-0.096 -0.304432,-0.144005 -0.48128,-0.144004 z m 2.715255,-0.388435 c 0.145268,0 0.282325,0.02463 0.411172,0.0739 0.13011,0.04927 0.243798,0.11748 0.341065,0.204639 0.09727,0.08716 0.171164,0.188218 0.221692,0.303169 0.01137,0.02527 0.01705,0.05116 0.01705,0.07769 0,0.05179 -0.01895,0.09664 -0.05684,0.134531 -0.03663,0.03663 -0.08085,0.05495 -0.132636,0.05495 -0.03411,0 -0.06821,-0.01074 -0.102319,-0.03221 -0.03411,-0.02274 -0.05811,-0.0499 -0.072,-0.08148 -0.048,-0.108635 -0.128213,-0.195165 -0.24064,-0.259588 -0.111162,-0.06442 -0.240009,-0.09663 -0.38654,-0.09663 -0.072,0 -0.148427,0.0088 -0.229272,0.02653 -0.07958,0.01769 -0.154742,0.04485 -0.225481,0.08148 -0.07074,0.03537 -0.128215,0.08021 -0.172428,0.134531 -0.04421,0.05432 -0.06632,0.11748 -0.06632,0.18948 0,0.05811 0.01895,0.108635 0.05684,0.151585 0.03789,0.04169 0.08021,0.07453 0.126952,0.09853 0.109899,0.05432 0.231166,0.09222 0.363803,0.113688 0.133899,0.02147 0.269062,0.04232 0.405488,0.06253 0.136426,0.02021 0.263378,0.05558 0.380856,0.106109 0.07453,0.03158 0.1459,0.07516 0.214113,0.130742 0.06821,0.05558 0.123793,0.123161 0.166742,0.202744 0.04295,0.07958 0.06442,0.173059 0.06442,0.280431 0,0.138953 -0.03348,0.260852 -0.100425,0.365697 -0.06695,0.104846 -0.154742,0.192007 -0.263378,0.261484 -0.108635,0.06948 -0.226745,0.121899 -0.354328,0.157268 -0.126321,0.03411 -0.250115,0.05116 -0.371382,0.05116 -0.164216,0 -0.318327,-0.0259 -0.462332,-0.07769 -0.144005,-0.05305 -0.269694,-0.127582 -0.377066,-0.223587 -0.107373,-0.09727 -0.189481,-0.210955 -0.246325,-0.341065 -0.01137,-0.02527 -0.01705,-0.05053 -0.01705,-0.07579 0,-0.05179 0.01832,-0.096 0.05495,-0.132636 0.03789,-0.03789 0.08274,-0.05684 0.134531,-0.05684 0.03537,0 0.07011,0.01137 0.104215,0.03411 0.03411,0.02147 0.05748,0.04863 0.07011,0.08148 0.05558,0.127583 0.149689,0.228639 0.282326,0.303168 0.132637,0.07327 0.284853,0.109899 0.456648,0.109899 0.107373,0 0.215377,-0.01579 0.324012,-0.04737 0.108635,-0.03285 0.199586,-0.08274 0.272852,-0.14969 0.07453,-0.06821 0.111793,-0.154742 0.111793,-0.259588 0,-0.06695 -0.02274,-0.121899 -0.06821,-0.164848 -0.04421,-0.04421 -0.09285,-0.07769 -0.1459,-0.100424 -0.120004,-0.05179 -0.248219,-0.08716 -0.384645,-0.10611 -0.136426,-0.02021 -0.27222,-0.04106 -0.407383,-0.06253 -0.135163,-0.02274 -0.261483,-0.06379 -0.378961,-0.123162 -0.09979,-0.05053 -0.190744,-0.123793 -0.272852,-0.219798 -0.08084,-0.09727 -0.121267,-0.220429 -0.121267,-0.369487 0,-0.131373 0.03158,-0.246956 0.09474,-0.346749 0.06443,-0.101056 0.149061,-0.185691 0.253904,-0.253904 0.106109,-0.06948 0.222323,-0.121899 0.348644,-0.157268 0.12632,-0.03537 0.252009,-0.05306 0.377066,-0.05306 z m 2.711465,2.76831 c -0.05179,0 -0.09664,-0.01832 -0.134531,-0.05495 -0.03663,-0.03789 -0.05495,-0.0821 -0.05495,-0.132636 l -0.0057,-2.404507 v -0.0019 c 0,-0.05053 0.01832,-0.09348 0.05495,-0.128847 0.03789,-0.03663 0.08274,-0.05495 0.134531,-0.05495 0.05179,0 0.09601,0.01832 0.132636,0.05495 0.03789,0.03537 0.05684,0.07832 0.05684,0.128847 l 0.0057,2.215027 1.434367,-0.0038 h 0.0019 c 0.05179,0 0.096,0.01895 0.132636,0.05684 0.03789,0.03663 0.05684,0.08085 0.05684,0.132637 0,0.05179 -0.01895,0.09664 -0.05684,0.134531 -0.03663,0.03663 -0.08084,0.05495 -0.132636,0.05495 h -0.0019 z m 3.283698,-2.76452 c 0.19327,0 0.37075,0.0379 0.53244,0.113688 0.162953,0.07453 0.304432,0.17748 0.424436,0.308853 0.120004,0.13011 0.212849,0.280431 0.278536,0.450964 0.06569,0.169269 0.09853,0.349275 0.09853,0.540019 0,0.190743 -0.03284,0.370118 -0.09853,0.538124 -0.06442,0.166743 -0.156002,0.313907 -0.274746,0.44149 -0.118741,0.127583 -0.259589,0.227376 -0.422542,0.299379 -0.16169,0.072 -0.340433,0.108004 -0.53623,0.108004 -0.199586,0 -0.380856,-0.036 -0.543809,-0.108004 -0.162953,-0.07327 -0.303168,-0.173691 -0.420646,-0.301274 -0.116215,-0.128847 -0.205902,-0.277273 -0.269062,-0.445279 -0.06316,-0.169269 -0.09474,-0.350539 -0.09474,-0.543809 0,-0.188217 0.03284,-0.366329 0.09853,-0.534335 0.06695,-0.168006 0.159795,-0.317064 0.278536,-0.447174 0.120005,-0.131373 0.26022,-0.234324 0.420647,-0.308853 0.16169,-0.07453 0.337907,-0.111793 0.52865,-0.111793 z m 0.0076,0.384645 c -0.186954,0 -0.352434,0.04863 -0.496439,0.1459 -0.142742,0.09727 -0.255167,0.226113 -0.337275,0.38654 -0.08084,0.159163 -0.121268,0.333485 -0.121268,0.522966 0,0.128847 0.02463,0.252009 0.0739,0.369487 0.04927,0.117478 0.11748,0.222324 0.204639,0.314538 0.08716,0.09095 0.187585,0.162953 0.301274,0.216007 0.114951,0.05179 0.237482,0.07769 0.367592,0.07769 0.130109,0 0.25264,-0.02716 0.367592,-0.08148 0.116215,-0.05432 0.218534,-0.127586 0.306958,-0.219798 0.08969,-0.09221 0.159795,-0.195796 0.210323,-0.310748 0.05053,-0.116215 0.07579,-0.234956 0.07579,-0.356223 0,-0.195797 -0.04295,-0.373908 -0.128847,-0.534335 -0.08463,-0.16169 -0.198955,-0.290537 -0.34296,-0.38654 -0.144005,-0.096 -0.304432,-0.144005 -0.48128,-0.144005 z m 2.715254,-0.388435 c 0.145269,0 0.282326,0.02463 0.411173,0.0739 0.13011,0.04927 0.243798,0.11748 0.341065,0.204639 0.09727,0.08716 0.171164,0.188218 0.221692,0.303169 0.01137,0.02527 0.01705,0.05116 0.01705,0.07769 0,0.05179 -0.01895,0.09664 -0.05684,0.134531 -0.03663,0.03663 -0.08085,0.05495 -0.132636,0.05495 -0.03411,0 -0.06821,-0.01074 -0.10232,-0.03221 -0.03411,-0.02274 -0.05811,-0.0499 -0.072,-0.08148 -0.048,-0.108635 -0.128213,-0.195165 -0.24064,-0.259588 -0.111162,-0.06442 -0.240009,-0.09663 -0.386541,-0.09663 -0.072,0 -0.148426,0.0088 -0.229271,0.02653 -0.07958,0.01769 -0.154743,0.04485 -0.225482,0.08148 -0.07074,0.03537 -0.128215,0.08021 -0.172427,0.134531 -0.04421,0.05432 -0.06632,0.11748 -0.06632,0.18948 0,0.05811 0.01895,0.108635 0.05684,0.151585 0.03789,0.04169 0.08021,0.07453 0.126952,0.09853 0.109899,0.05432 0.231166,0.09222 0.363802,0.113688 0.1339,0.02147 0.269063,0.04232 0.405489,0.06253 0.136426,0.02021 0.263378,0.05558 0.380855,0.106109 0.07453,0.03158 0.1459,0.07516 0.214113,0.130742 0.06821,0.05558 0.123794,0.123161 0.166743,0.202744 0.04295,0.07958 0.06442,0.173059 0.06442,0.280431 0,0.138953 -0.03347,0.260852 -0.100424,0.365697 -0.06695,0.104846 -0.154743,0.192007 -0.263378,0.261484 -0.108635,0.06948 -0.226745,0.121899 -0.354329,0.157268 -0.12632,0.03411 -0.250114,0.05116 -0.371381,0.05116 -0.164217,0 -0.318328,-0.0259 -0.462333,-0.07769 -0.144005,-0.05305 -0.269693,-0.127582 -0.377066,-0.223587 -0.107372,-0.09727 -0.18948,-0.210955 -0.246324,-0.341065 -0.01137,-0.02527 -0.01705,-0.05053 -0.01705,-0.07579 0,-0.05179 0.01832,-0.096 0.05495,-0.132636 0.03789,-0.03789 0.08274,-0.05684 0.134531,-0.05684 0.03537,0 0.0701,0.01137 0.104214,0.03411 0.03411,0.02147 0.05748,0.04863 0.07011,0.08148 0.05558,0.127583 0.149689,0.228639 0.282326,0.303168 0.132636,0.07327 0.284852,0.109899 0.456648,0.109899 0.107372,0 0.215376,-0.01579 0.324011,-0.04737 0.108636,-0.03285 0.199587,-0.08274 0.272852,-0.14969 0.07453,-0.06821 0.111794,-0.154742 0.111794,-0.259588 0,-0.06695 -0.02274,-0.121899 -0.06821,-0.164848 -0.04421,-0.04421 -0.09285,-0.07769 -0.1459,-0.100424 -0.120005,-0.05179 -0.24822,-0.08716 -0.384646,-0.10611 -0.136425,-0.02021 -0.27222,-0.04106 -0.407383,-0.06253 -0.135163,-0.02274 -0.261483,-0.06379 -0.378961,-0.123162 -0.09979,-0.05053 -0.190743,-0.123793 -0.272851,-0.219798 -0.08084,-0.09727 -0.121268,-0.220429 -0.121268,-0.369487 0,-0.131373 0.03158,-0.246956 0.09474,-0.346749 0.06443,-0.101056 0.149061,-0.185691 0.253904,-0.253904 0.106109,-0.06948 0.222324,-0.121899 0.348644,-0.157268 0.126321,-0.03537 0.252009,-0.05306 0.377066,-0.05306 z m 2.383664,0.231166 c 0,-0.05179 0.01832,-0.09601 0.05495,-0.132636 0.03789,-0.03789 0.08274,-0.05684 0.134531,-0.05684 h 0.0019 l 1.89291,-0.01137 h 0.0038 c 0.05179,0 0.09601,0.01895 0.132637,0.05684 0.03789,0.03663 0.05684,0.08085 0.05684,0.132636 0,0.05179 -0.01895,0.09664 -0.05684,0.134531 -0.03663,0.03663 -0.08085,0.05495 -0.132637,0.05495 h -0.0019 l -0.754132,0.0038 -0.0095,2.175236 v 0.0019 c 0,0.05053 -0.01895,0.09411 -0.05684,0.130741 -0.03663,0.03663 -0.08085,0.05495 -0.132636,0.05495 -0.05179,0 -0.09664,-0.01832 -0.134531,-0.05495 -0.03663,-0.03663 -0.05495,-0.08021 -0.05495,-0.130741 v -0.0038 l 0.0095,-2.171446 -0.761711,0.0057 h -0.0019 c -0.05179,0 -0.09664,-0.01832 -0.134531,-0.05495 -0.03663,-0.03789 -0.05495,-0.08274 -0.05495,-0.134531 z m 3.744134,-0.227376 c 0.19327,0 0.37075,0.0379 0.53244,0.113688 0.162953,0.07453 0.304432,0.17748 0.424437,0.308853 0.120004,0.13011 0.212849,0.280431 0.278536,0.450964 0.06569,0.169269 0.09853,0.349275 0.09853,0.540019 0,0.190743 -0.03284,0.370118 -0.09853,0.538124 -0.06443,0.166743 -0.156009,0.313907 -0.274747,0.44149 -0.118741,0.127583 -0.259588,0.227376 -0.422541,0.299379 -0.16169,0.072 -0.340433,0.108004 -0.53623,0.108004 -0.199586,0 -0.380856,-0.036 -0.543809,-0.108004 -0.162953,-0.07327 -0.303169,-0.173691 -0.420646,-0.301274 -0.116215,-0.128847 -0.205902,-0.277273 -0.269063,-0.445279 -0.06316,-0.169269 -0.09474,-0.350539 -0.09474,-0.543809 0,-0.188217 0.03284,-0.366329 0.09853,-0.534335 0.06695,-0.168006 0.159795,-0.317064 0.278536,-0.447174 0.120005,-0.131373 0.26022,-0.234324 0.420647,-0.308853 0.16169,-0.07453 0.337907,-0.111793 0.52865,-0.111793 z m 0.0076,0.384645 c -0.186955,0 -0.352434,0.04863 -0.496439,0.1459 -0.142742,0.09727 -0.255167,0.226113 -0.337275,0.38654 -0.08084,0.159163 -0.121268,0.333485 -0.121268,0.522966 0,0.128847 0.02463,0.252009 0.0739,0.369487 0.04927,0.117478 0.11748,0.222324 0.204639,0.314538 0.08716,0.09095 0.187586,0.162953 0.301274,0.216007 0.114951,0.05179 0.237482,0.07769 0.367592,0.07769 0.13011,0 0.252641,-0.02716 0.367592,-0.08148 0.116215,-0.05432 0.218534,-0.127586 0.306959,-0.219798 0.08969,-0.09221 0.159795,-0.195796 0.210323,-0.310748 0.05053,-0.116215 0.07579,-0.234956 0.07579,-0.356223 0,-0.195797 -0.04295,-0.373908 -0.128846,-0.534335 -0.08464,-0.16169 -0.198955,-0.290537 -0.34296,-0.38654 -0.144005,-0.096 -0.304432,-0.144005 -0.48128,-0.144005 z m 1.561318,-0.166743 c 0,-0.048 0.01769,-0.09095 0.05306,-0.128847 0.03663,-0.03789 0.07895,-0.05684 0.126951,-0.05684 0.05937,0 0.106744,0.01642 0.142111,0.04927 0.03663,0.03158 0.05558,0.07706 0.05684,0.136426 l 0.01326,1.369944 c 0.0025,0.272852 0.05748,0.488228 0.164848,0.646128 0.107372,0.157901 0.285484,0.236851 0.534335,0.236851 0.184427,0 0.332222,-0.036 0.443384,-0.108004 0.111162,-0.072 0.191375,-0.172427 0.24064,-0.301274 0.04927,-0.128847 0.0739,-0.277273 0.0739,-0.445279 l -0.0038,-1.400261 v -0.0019 c 0,-0.05179 0.01832,-0.09537 0.05495,-0.130742 0.03663,-0.03663 0.08084,-0.05495 0.132636,-0.05495 0.05179,0 0.09664,0.01832 0.134532,0.05495 0.03789,0.03537 0.05684,0.07895 0.05684,0.130742 v 0.0019 l 0.0038,1.400261 c 0,0.378961 -0.09411,0.678971 -0.282326,0.900032 -0.186954,0.221061 -0.46928,0.331591 -0.846977,0.331591 -0.243799,0 -0.44528,-0.05369 -0.604443,-0.161058 -0.159163,-0.108636 -0.278536,-0.257063 -0.358118,-0.44528 -0.07958,-0.18948 -0.120636,-0.405488 -0.123162,-0.648023 l -0.01326,-1.373733 z m 4.547532,2.395033 c 0,0.04927 -0.01832,0.09222 -0.05495,0.128847 -0.03537,0.03537 -0.07389,0.05305 -0.115583,0.05305 -0.03537,0 -0.06632,-0.01263 -0.09285,-0.0379 -0.02653,-0.024 -0.04484,-0.04232 -0.05495,-0.05495 -0.114951,-0.08084 -0.214744,-0.172427 -0.299379,-0.274747 -0.08337,-0.103583 -0.154742,-0.216008 -0.214113,-0.337275 -0.05179,-0.108635 -0.104848,-0.19327 -0.159163,-0.253904 -0.05305,-0.06063 -0.117477,-0.103582 -0.19327,-0.128846 -0.07579,-0.02527 -0.174323,-0.03853 -0.29559,-0.03979 l -0.172427,-0.0019 0.0019,0.917085 v 0.0038 c 0,0.05053 -0.01895,0.09474 -0.05684,0.132636 -0.03663,0.03789 -0.08084,0.05684 -0.132636,0.05684 -0.05179,0 -0.09664,-0.02021 -0.134531,-0.06063 -0.03663,-0.04042 -0.05495,-0.08842 -0.05495,-0.144005 l -0.0057,-2.351453 c 0,-0.05305 0.01832,-0.09727 0.05495,-0.132636 0.03789,-0.03663 0.08211,-0.05558 0.132636,-0.05684 l 0.504018,-0.0019 h 0.04358 c 0.217271,0 0.411173,0.03221 0.581705,0.09664 0.170533,0.06316 0.305064,0.158532 0.403594,0.286115 0.09853,0.126321 0.147795,0.28359 0.147795,0.471807 0,0.121267 -0.02526,0.229271 -0.07579,0.324011 -0.04927,0.09474 -0.114321,0.174954 -0.195164,0.24064 -0.08084,0.06569 -0.168006,0.116847 -0.261483,0.15348 0.04295,0.05432 0.08589,0.12127 0.128846,0.200849 0.07327,0.140215 0.144637,0.264641 0.214113,0.373276 0.06948,0.107373 0.161058,0.202113 0.274747,0.284221 0.02274,0.01516 0.04169,0.03663 0.05684,0.06442 0.01642,0.02653 0.02463,0.05621 0.02463,0.08906 z m -1.290362,-2.205552 h -0.365697 l 0.0038,0.905716 0.365697,-0.0038 c 0.232429,-0.0025 0.414331,-0.0379 0.545704,-0.106109 0.132636,-0.06821 0.198954,-0.177481 0.198954,-0.327802 0,-0.154111 -0.07011,-0.270325 -0.210323,-0.348644 -0.140215,-0.07958 -0.31959,-0.119372 -0.538125,-0.119372 z m 2.688728,-0.411173 c 0.145268,0 0.282325,0.02463 0.411172,0.0739 0.13011,0.04927 0.243798,0.11748 0.341065,0.204639 0.09727,0.08716 0.171159,0.188218 0.221689,0.303169 0.0114,0.02527 0.0171,0.05116 0.0171,0.07769 0,0.05179 -0.0189,0.09664 -0.0568,0.134531 -0.03663,0.03663 -0.08084,0.05495 -0.132634,0.05495 -0.03411,0 -0.06821,-0.01074 -0.102319,-0.03221 -0.03411,-0.02274 -0.05811,-0.0499 -0.072,-0.08148 -0.048,-0.108635 -0.128213,-0.195165 -0.24064,-0.259588 -0.111162,-0.06442 -0.240009,-0.09663 -0.38654,-0.09663 -0.072,0 -0.148427,0.0088 -0.229272,0.02653 -0.07958,0.01769 -0.154742,0.04485 -0.225481,0.08148 -0.07074,0.03537 -0.128215,0.08021 -0.172428,0.134531 -0.04421,0.05432 -0.06632,0.11748 -0.06632,0.18948 0,0.05811 0.01895,0.108635 0.05684,0.151585 0.03789,0.04169 0.08021,0.07453 0.126952,0.09853 0.109899,0.05432 0.231166,0.09222 0.363803,0.113688 0.133899,0.02147 0.269062,0.04232 0.405488,0.06253 0.136426,0.02021 0.263378,0.05558 0.380856,0.106109 0.07453,0.03158 0.1459,0.07516 0.214113,0.130742 0.06821,0.05558 0.123792,0.123161 0.166742,0.202744 0.0429,0.07958 0.0644,0.173059 0.0644,0.280431 0,0.138953 -0.0335,0.260852 -0.10042,0.365697 -0.067,0.104846 -0.154743,0.192007 -0.263379,0.261484 -0.108635,0.06948 -0.226745,0.121899 -0.354328,0.157268 -0.126321,0.03411 -0.250115,0.05116 -0.371382,0.05116 -0.164216,0 -0.318327,-0.0259 -0.462332,-0.07769 -0.144005,-0.05305 -0.269694,-0.127582 -0.377066,-0.223587 -0.107373,-0.09727 -0.189481,-0.210955 -0.246325,-0.341065 -0.01137,-0.02527 -0.01705,-0.05053 -0.01705,-0.07579 0,-0.05179 0.01832,-0.096 0.05495,-0.132636 0.03789,-0.03789 0.08274,-0.05684 0.134531,-0.05684 0.03537,0 0.07011,0.01137 0.104215,0.03411 0.03411,0.02147 0.05748,0.04863 0.07011,0.08148 0.05558,0.127583 0.149689,0.228639 0.282326,0.303168 0.132637,0.07327 0.284853,0.109899 0.456648,0.109899 0.107373,0 0.215377,-0.01579 0.324012,-0.04737 0.108635,-0.03285 0.199586,-0.08274 0.272852,-0.14969 0.07453,-0.06821 0.111793,-0.154742 0.111793,-0.259588 0,-0.06695 -0.02274,-0.121899 -0.06821,-0.164848 -0.04421,-0.04421 -0.09285,-0.07769 -0.1459,-0.100424 -0.120004,-0.05179 -0.248219,-0.08716 -0.384645,-0.10611 -0.136426,-0.02021 -0.27222,-0.04106 -0.407383,-0.06253 -0.135163,-0.02274 -0.261483,-0.06379 -0.378961,-0.123162 -0.09979,-0.05053 -0.190744,-0.123793 -0.272852,-0.219798 -0.08084,-0.09727 -0.121267,-0.220429 -0.121267,-0.369487 0,-0.131373 0.03158,-0.246956 0.09474,-0.346749 0.06443,-0.101056 0.149061,-0.185691 0.253904,-0.253904 0.106109,-0.06948 0.222323,-0.121899 0.348644,-0.157268 0.12632,-0.03537 0.252009,-0.05306 0.377066,-0.05306 z m 2.478396,0.221692 c 0,-0.05053 0.0183,-0.09348 0.0549,-0.128847 0.0379,-0.03663 0.0827,-0.05495 0.13453,-0.05495 l 1.62385,0.0019 h 0.002 c 0.0518,0 0.096,0.01895 0.13263,0.05684 0.0379,0.03663 0.0568,0.08084 0.0568,0.132636 0,0.05179 -0.0189,0.09664 -0.0568,0.134531 -0.0367,0.03663 -0.0809,0.05495 -0.13263,0.05495 h -0.002 l -1.43436,-0.0019 0.002,0.77687 1.2771,0.0095 c 0.0543,0 0.0992,0.01895 0.13453,0.05684 0.0367,0.03789 0.055,0.08653 0.055,0.1459 0,0.05053 -0.0196,0.09348 -0.0587,0.128847 -0.0391,0.03411 -0.0827,0.05116 -0.13074,0.05116 h -0.002 l -1.27331,-0.0095 0.002,0.801503 1.42868,-0.0019 h 0.002 c 0.0518,0 0.096,0.01895 0.13263,0.05684 0.0379,0.03663 0.0568,0.08084 0.0568,0.132636 0,0.05179 -0.0189,0.09664 -0.0568,0.134532 -0.0367,0.03663 -0.0809,0.05495 -0.13263,0.05495 h -0.002 l -1.61816,0.0019 c -0.0518,0 -0.0966,-0.01832 -0.13453,-0.05495 -0.0367,-0.03789 -0.055,-0.0821 -0.055,-0.132636 z m 2.24156,0 c 0,-0.05305 0.0189,-0.09663 0.0568,-0.130741 0.0391,-0.03537 0.0852,-0.05306 0.13832,-0.05306 0.0594,0 0.10804,0.024 0.1459,0.072 l 1.43058,1.942174 v -1.824696 c 0,-0.05053 0.0183,-0.09348 0.0549,-0.128847 0.0379,-0.03663 0.0827,-0.05495 0.13453,-0.05495 0.0518,0 0.096,0.01832 0.13264,0.05495 0.0379,0.03537 0.0568,0.07832 0.0568,0.128847 l -0.002,2.376085 c 0,0.05305 -0.0196,0.09727 -0.0587,0.132636 -0.0379,0.03411 -0.0833,0.05116 -0.13643,0.05116 -0.0594,0 -0.10803,-0.02526 -0.1459,-0.07579 l -1.42868,-1.94028 v 1.830382 c 0,0.05053 -0.0189,0.09411 -0.0568,0.130741 -0.0366,0.03537 -0.0808,0.05306 -0.13264,0.05306 -0.0518,0 -0.0966,-0.01769 -0.13453,-0.05306 -0.0367,-0.03663 -0.055,-0.08021 -0.055,-0.130741 z m 3.49591,0 c 0,-0.048 0.0177,-0.09095 0.0531,-0.128847 0.0367,-0.03789 0.079,-0.05684 0.12695,-0.05684 0.0594,0 0.10677,0.01642 0.14211,0.04927 0.0366,0.03158 0.0555,0.07706 0.0568,0.136426 l 0.0133,1.369944 c 0.003,0.272852 0.0576,0.488228 0.16485,0.646128 0.10737,0.157901 0.28548,0.236851 0.53433,0.236851 0.18443,0 0.33222,-0.036 0.44338,-0.108004 0.11117,-0.072 0.19138,-0.172427 0.24064,-0.301274 0.0493,-0.128847 0.0739,-0.277273 0.0739,-0.445279 l -0.004,-1.400261 v -0.0019 c 0,-0.05179 0.0183,-0.09537 0.055,-0.130742 0.0367,-0.03663 0.0809,-0.05495 0.13264,-0.05495 0.0518,0 0.0966,0.01832 0.13453,0.05495 0.0379,0.03537 0.0568,0.07895 0.0568,0.130742 v 0.0019 l 0.004,1.400261 c 0,0.378961 -0.0941,0.678971 -0.28232,0.900032 -0.18695,0.221061 -0.46928,0.331591 -0.84698,0.331591 -0.2438,0 -0.44528,-0.05369 -0.60444,-0.161058 -0.15916,-0.108636 -0.27854,-0.257063 -0.35812,-0.44528 -0.0796,-0.18948 -0.12063,-0.405488 -0.12316,-0.648023 l -0.0133,-1.373733 z m 2.51252,0 c 0,-0.05305 0.0189,-0.09663 0.0568,-0.130741 0.0391,-0.03537 0.0852,-0.05306 0.13832,-0.05306 0.0594,0 0.10804,0.024 0.1459,0.072 l 1.43058,1.942174 v -1.824696 c 0,-0.05053 0.0183,-0.09348 0.055,-0.128847 0.0379,-0.03663 0.0827,-0.05495 0.13453,-0.05495 0.0518,0 0.096,0.01832 0.13263,0.05495 0.0379,0.03537 0.0568,0.07832 0.0568,0.128847 l -0.002,2.376085 c 0,0.05305 -0.0196,0.09727 -0.0587,0.132636 -0.0379,0.03411 -0.0833,0.05116 -0.13642,0.05116 -0.0594,0 -0.10803,-0.02526 -0.1459,-0.07579 l -1.42868,-1.94028 v 1.830382 c 0,0.05053 -0.0189,0.09411 -0.0568,0.130741 -0.0367,0.03537 -0.0809,0.05306 -0.13263,0.05306 -0.0518,0 -0.0966,-0.01769 -0.13454,-0.05306 -0.0366,-0.03663 -0.0549,-0.08021 -0.0549,-0.130741 z m 4.64985,-0.221692 c 0.14527,0 0.28233,0.02463 0.41117,0.0739 0.13011,0.04927 0.2438,0.11748 0.34106,0.204639 0.0973,0.08716 0.17117,0.188218 0.2217,0.303169 0.0113,0.02527 0.017,0.05116 0.017,0.07769 0,0.05179 -0.0189,0.09664 -0.0568,0.134531 -0.0367,0.03663 -0.0809,0.05495 -0.13263,0.05495 -0.0341,0 -0.0682,-0.01074 -0.10232,-0.03221 -0.0341,-0.02274 -0.0581,-0.0499 -0.072,-0.08148 -0.048,-0.108635 -0.12821,-0.195165 -0.24064,-0.259588 -0.11116,-0.06442 -0.24001,-0.09663 -0.38654,-0.09663 -0.072,0 -0.14843,0.0088 -0.22928,0.02653 -0.0796,0.01769 -0.15474,0.04485 -0.22548,0.08148 -0.0707,0.03537 -0.12821,0.08021 -0.17242,0.134531 -0.0442,0.05432 -0.0663,0.11748 -0.0663,0.18948 0,0.05811 0.0189,0.108635 0.0568,0.151585 0.0379,0.04169 0.0802,0.07453 0.12695,0.09853 0.1099,0.05432 0.23117,0.09222 0.36381,0.113688 0.1339,0.02147 0.26906,0.04232 0.40548,0.06253 0.13643,0.02021 0.26338,0.05558 0.38086,0.106109 0.0745,0.03158 0.1459,0.07516 0.21411,0.130742 0.0682,0.05558 0.1238,0.123161 0.16675,0.202744 0.0429,0.07958 0.0644,0.173059 0.0644,0.280431 0,0.138953 -0.0335,0.260852 -0.10043,0.365697 -0.0669,0.104846 -0.15473,0.192007 -0.26337,0.261484 -0.10864,0.06948 -0.22675,0.121899 -0.35433,0.157268 -0.12632,0.03411 -0.25011,0.05116 -0.37138,0.05116 -0.16422,0 -0.31833,-0.0259 -0.46234,-0.07769 -0.144,-0.05305 -0.26968,-0.127582 -0.37706,-0.223587 -0.10737,-0.09727 -0.18948,-0.210955 -0.24633,-0.341065 -0.0113,-0.02527 -0.017,-0.05053 -0.017,-0.07579 0,-0.05179 0.0183,-0.096 0.055,-0.132636 0.0379,-0.03789 0.0827,-0.05684 0.13453,-0.05684 0.0353,0 0.0701,0.01137 0.10421,0.03411 0.0341,0.02147 0.0575,0.04863 0.0701,0.08148 0.0556,0.127583 0.14971,0.228639 0.28233,0.303168 0.13264,0.07327 0.28485,0.109899 0.45665,0.109899 0.10737,0 0.21537,-0.01579 0.32401,-0.04737 0.10864,-0.03285 0.19959,-0.08274 0.27285,-0.14969 0.0745,-0.06821 0.11179,-0.154742 0.11179,-0.259588 0,-0.06695 -0.0227,-0.121899 -0.0682,-0.164848 -0.0442,-0.04421 -0.0928,-0.07769 -0.1459,-0.100424 -0.12,-0.05179 -0.24822,-0.08716 -0.38465,-0.10611 -0.13642,-0.02021 -0.27221,-0.04106 -0.40738,-0.06253 -0.13516,-0.02274 -0.26148,-0.06379 -0.37896,-0.123162 -0.0998,-0.05053 -0.19074,-0.123793 -0.27285,-0.219798 -0.0808,-0.09727 -0.12127,-0.220429 -0.12127,-0.369487 0,-0.131373 0.0316,-0.246956 0.0947,-0.346749 0.0644,-0.101056 0.14904,-0.185691 0.25391,-0.253904 0.10611,-0.06948 0.22232,-0.121899 0.34864,-0.157268 0.12632,-0.03537 0.25201,-0.05306 0.37707,-0.05306 z m 3.28559,-1.057301 c 0.0581,0 0.10424,0.02021 0.13832,0.06063 0.0341,0.04042 0.0512,0.08463 0.0512,0.132636 0,0.04927 -0.0177,0.09222 -0.0531,0.128847 l -0.61391,0.568441 c -0.0505,0.05432 -0.0985,0.08148 -0.14401,0.08148 -0.0316,0 -0.0613,-0.0139 -0.0891,-0.04169 -0.0278,-0.02779 -0.0417,-0.05685 -0.0417,-0.08716 0,-0.04421 0.0253,-0.09158 0.0758,-0.14211 l 0.53813,-0.640444 c 0.0367,-0.04042 0.0828,-0.06063 0.13832,-0.06063 z m -0.58929,1.061091 c 0.19328,0 0.37076,0.0379 0.53244,0.113688 0.16296,0.07453 0.30444,0.17748 0.42444,0.308853 0.12001,0.13011 0.21286,0.280431 0.27854,0.450964 0.0657,0.169269 0.0985,0.349275 0.0985,0.540019 0,0.190743 -0.0328,0.370118 -0.0985,0.538124 -0.0644,0.166743 -0.15598,0.313907 -0.27475,0.44149 -0.11874,0.127583 -0.25958,0.227376 -0.42254,0.299379 -0.16169,0.072 -0.34043,0.108004 -0.53623,0.108004 -0.19958,0 -0.38085,-0.036 -0.54381,-0.108004 -0.16295,-0.07327 -0.30317,-0.173691 -0.42065,-0.301274 -0.11621,-0.128847 -0.2059,-0.277273 -0.26906,-0.445279 -0.0631,-0.169269 -0.0947,-0.350539 -0.0947,-0.543809 0,-0.188217 0.0328,-0.366329 0.0985,-0.534335 0.067,-0.168006 0.1598,-0.317064 0.27854,-0.447174 0.12,-0.131373 0.26022,-0.234324 0.42064,-0.308853 0.1617,-0.07453 0.33791,-0.111793 0.52865,-0.111793 z m 0.008,0.384645 c -0.18695,0 -0.35243,0.04863 -0.49644,0.1459 -0.14274,0.09727 -0.25516,0.226113 -0.33727,0.38654 -0.0808,0.159163 -0.12127,0.333485 -0.12127,0.522966 0,0.128847 0.0246,0.252009 0.0739,0.369487 0.0493,0.117478 0.11748,0.222324 0.20464,0.314538 0.0872,0.09095 0.18759,0.162953 0.30127,0.216007 0.11496,0.05179 0.23749,0.07769 0.36759,0.07769 0.13012,0 0.25265,-0.02716 0.3676,-0.08148 0.11622,-0.05432 0.21853,-0.127586 0.30695,-0.219798 0.0897,-0.09221 0.15981,-0.195796 0.21033,-0.310748 0.0505,-0.116215 0.0758,-0.234956 0.0758,-0.356223 0,-0.195797 -0.0429,-0.373908 -0.12885,-0.534335 -0.0846,-0.16169 -0.19895,-0.290537 -0.34296,-0.38654 -0.144,-0.096 -0.30442,-0.144005 -0.48128,-0.144005 z m 1.79438,2.379875 c -0.0518,0 -0.0966,-0.01832 -0.13453,-0.05495 -0.0366,-0.03789 -0.0549,-0.0821 -0.0549,-0.132636 l -0.006,-2.404507 v -0.0019 c 0,-0.05053 0.0183,-0.09348 0.0549,-0.128847 0.0379,-0.03663 0.0827,-0.05495 0.13454,-0.05495 0.0518,0 0.096,0.01832 0.13263,0.05495 0.0379,0.03537 0.0568,0.07832 0.0568,0.128847 l 0.006,2.215027 1.43437,-0.0038 h 0.002 c 0.0518,0 0.096,0.01895 0.13264,0.05684 0.0379,0.03663 0.0568,0.08085 0.0568,0.132637 0,0.05179 -0.0189,0.09664 -0.0568,0.134531 -0.0366,0.03663 -0.0808,0.05495 -0.13264,0.05495 h -0.002 z m 3.2837,-2.76452 c 0.19327,0 0.37075,0.0379 0.53244,0.113688 0.16296,0.07453 0.30444,0.17748 0.42444,0.308853 0.12,0.13011 0.21285,0.280431 0.27853,0.450964 0.0657,0.169269 0.0985,0.349275 0.0985,0.540019 0,0.190743 -0.0328,0.370118 -0.0985,0.538124 -0.0644,0.166743 -0.15598,0.313907 -0.27475,0.44149 -0.11874,0.127583 -0.25958,0.227376 -0.42254,0.299379 -0.16168,0.072 -0.34043,0.108004 -0.53623,0.108004 -0.19958,0 -0.38085,-0.036 -0.54381,-0.108004 -0.16295,-0.07327 -0.30316,-0.173691 -0.42064,-0.301274 -0.11621,-0.128847 -0.2059,-0.277273 -0.26906,-0.445279 -0.0631,-0.169269 -0.0947,-0.350539 -0.0947,-0.543809 0,-0.188217 0.0328,-0.366329 0.0985,-0.534335 0.067,-0.168006 0.15979,-0.317064 0.27853,-0.447174 0.12001,-0.131373 0.26023,-0.234324 0.42065,-0.308853 0.16169,-0.07453 0.33791,-0.111793 0.52865,-0.111793 z m 0.008,0.384645 c -0.18695,0 -0.35243,0.04863 -0.49644,0.1459 -0.14274,0.09727 -0.25516,0.226113 -0.33728,0.38654 -0.0808,0.159163 -0.12126,0.333485 -0.12126,0.522966 0,0.128847 0.0246,0.252009 0.0739,0.369487 0.0493,0.117478 0.11748,0.222324 0.20464,0.314538 0.0872,0.09095 0.18759,0.162953 0.30128,0.216007 0.11495,0.05179 0.23748,0.07769 0.36759,0.07769 0.13011,0 0.25264,-0.02716 0.36759,-0.08148 0.11622,-0.05432 0.21854,-0.127586 0.30696,-0.219798 0.0897,-0.09221 0.1598,-0.195796 0.21032,-0.310748 0.0505,-0.116215 0.0758,-0.234956 0.0758,-0.356223 0,-0.195797 -0.0429,-0.373908 -0.12884,-0.534335 -0.0846,-0.16169 -0.19895,-0.290537 -0.34296,-0.38654 -0.144,-0.096 -0.30443,-0.144005 -0.48128,-0.144005 z m 2.85547,2.379875 c -0.0518,0 -0.0966,-0.01832 -0.13453,-0.05495 -0.0367,-0.03789 -0.055,-0.0821 -0.055,-0.132636 l -0.006,-2.404507 v -0.0019 c 0,-0.05053 0.0183,-0.09348 0.055,-0.128847 0.0379,-0.03663 0.0827,-0.05495 0.13453,-0.05495 0.0518,0 0.096,0.01832 0.13264,0.05495 0.0379,0.03537 0.0568,0.07832 0.0568,0.128847 l 0.006,2.215027 1.43437,-0.0038 h 0.002 c 0.0518,0 0.096,0.01895 0.13264,0.05684 0.0379,0.03663 0.0568,0.08085 0.0568,0.132637 0,0.05179 -0.0189,0.09664 -0.0568,0.134531 -0.0367,0.03663 -0.0809,0.05495 -0.13264,0.05495 h -0.002 z m 2.0047,-2.546618 c 0,-0.048 0.0177,-0.09095 0.053,-0.128847 0.0366,-0.03789 0.0789,-0.05684 0.12696,-0.05684 0.0594,0 0.10677,0.01642 0.14211,0.04927 0.0367,0.03158 0.0556,0.07706 0.0568,0.136426 l 0.0133,1.369944 c 0.003,0.272852 0.0576,0.488228 0.16485,0.646128 0.10738,0.157901 0.28549,0.236851 0.53434,0.236851 0.18443,0 0.33222,-0.036 0.44338,-0.108004 0.11116,-0.072 0.19138,-0.172427 0.24064,-0.301274 0.0493,-0.128847 0.0739,-0.277273 0.0739,-0.445279 l -0.004,-1.400261 v -0.0019 c 0,-0.05179 0.0183,-0.09537 0.055,-0.130742 0.0366,-0.03663 0.0808,-0.05495 0.13263,-0.05495 0.0518,0 0.0966,0.01832 0.13454,0.05495 0.0379,0.03537 0.0568,0.07895 0.0568,0.130742 v 0.0019 l 0.004,1.400261 c 0,0.378961 -0.0941,0.678971 -0.28233,0.900032 -0.18695,0.221061 -0.46927,0.331591 -0.84697,0.331591 -0.2438,0 -0.44528,-0.05369 -0.60445,-0.161058 -0.15916,-0.108636 -0.27853,-0.257063 -0.35811,-0.44528 -0.0796,-0.18948 -0.12064,-0.405488 -0.12317,-0.648023 l -0.0133,-1.373733 z m 2.47462,1.206991 c 0,-0.185691 0.0328,-0.364435 0.0985,-0.53623 0.0669,-0.171795 0.16106,-0.324643 0.28233,-0.458543 0.12253,-0.135163 0.2678,-0.241903 0.4358,-0.320222 0.16927,-0.07832 0.35622,-0.117478 0.56086,-0.117478 0.18822,0 0.35876,0.0259 0.5116,0.07769 0.15412,0.05179 0.29812,0.125059 0.43202,0.219798 0.0543,0.03663 0.0815,0.08716 0.0815,0.151584 0,0.05053 -0.0189,0.09474 -0.0568,0.132636 -0.0366,0.03663 -0.0808,0.05495 -0.13264,0.05495 -0.0404,0 -0.0777,-0.012 -0.11179,-0.036 -0.0985,-0.06695 -0.20969,-0.120004 -0.33349,-0.159163 -0.12379,-0.04042 -0.25074,-0.06063 -0.38085,-0.06063 -0.1478,0 -0.28359,0.02842 -0.40739,0.08527 -0.12252,0.05558 -0.22926,0.132635 -0.32022,0.231166 -0.0897,0.09727 -0.15979,0.208429 -0.21032,0.333486 -0.0493,0.125057 -0.0739,0.25643 -0.0739,0.394119 0,0.188217 0.0411,0.355592 0.12316,0.502124 0.0834,0.146531 0.19896,0.261483 0.34675,0.344854 0.14906,0.08337 0.32212,0.125057 0.51918,0.125057 0.10864,0 0.21601,-0.01074 0.32212,-0.03221 0.10737,-0.02147 0.20527,-0.04611 0.29369,-0.0739 l -0.006,-0.646128 h -0.57792 c -0.0518,0 -0.0966,-0.01832 -0.13453,-0.05495 -0.0366,-0.03789 -0.0549,-0.08274 -0.0549,-0.134531 0,-0.05179 0.0183,-0.096 0.0549,-0.132636 0.0379,-0.03789 0.0827,-0.05684 0.13453,-0.05684 h 0.7674 c 0.0518,0 0.096,0.01832 0.13263,0.05495 0.0379,0.03663 0.0568,0.08085 0.0568,0.132637 l 0.008,0.968245 v 0.0019 c 0,0.03537 -0.0114,0.06947 -0.0341,0.102319 -0.0227,0.03285 -0.0512,0.05558 -0.0853,0.06821 -0.12126,0.048 -0.25516,0.09095 -0.4017,0.128847 -0.14652,0.03663 -0.30063,0.05495 -0.46233,0.05495 -0.26527,0 -0.50212,-0.05748 -0.71055,-0.172427 -0.20716,-0.114951 -0.37012,-0.273483 -0.48886,-0.475596 -0.11874,-0.202113 -0.17811,-0.434542 -0.17811,-0.697288 z m 3.69676,-1.318784 c 0.0139,-0.03158 0.0372,-0.05811 0.0701,-0.07958 0.0341,-0.02274 0.0689,-0.03411 0.10421,-0.03411 0.0341,0 0.0682,0.01137 0.10232,0.03411 0.0354,0.02147 0.0594,0.048 0.072,0.07958 l 1.04215,2.41777 c 0.0114,0.02527 0.0171,0.05116 0.0171,0.07769 0,0.05179 -0.0189,0.09664 -0.0568,0.134532 -0.0366,0.03663 -0.0808,0.05495 -0.13264,0.05495 -0.0354,0 -0.0701,-0.01137 -0.10422,-0.03411 -0.0341,-0.02274 -0.0581,-0.0499 -0.072,-0.08148 l -0.32401,-0.752238 -1.08004,-0.01516 -0.33159,0.769291 c -0.0126,0.03158 -0.036,0.05874 -0.0701,0.08148 -0.0341,0.024 -0.0689,0.036 -0.10421,0.036 -0.0518,0 -0.0966,-0.01832 -0.13453,-0.05495 -0.0367,-0.03789 -0.055,-0.08274 -0.055,-0.134531 0,-0.02653 0.006,-0.05242 0.0171,-0.07769 z m 0.17432,0.555177 -0.37327,0.869716 0.75223,0.0095 z m 3.50349,1.951649 c 0,0.04927 -0.0183,0.09222 -0.055,0.128847 -0.0353,0.03537 -0.0739,0.05305 -0.11558,0.05305 -0.0353,0 -0.0663,-0.01263 -0.0928,-0.0379 -0.0265,-0.024 -0.0448,-0.04232 -0.0549,-0.05495 -0.11495,-0.08084 -0.21474,-0.172427 -0.29938,-0.274747 -0.0834,-0.103583 -0.15474,-0.216008 -0.21411,-0.337275 -0.0518,-0.108635 -0.10485,-0.19327 -0.15917,-0.253904 -0.0531,-0.06063 -0.11749,-0.103582 -0.19327,-0.128846 -0.0758,-0.02527 -0.17432,-0.03853 -0.29559,-0.03979 l -0.17243,-0.0019 0.002,0.917085 v 0.0038 c 0,0.05053 -0.0189,0.09474 -0.0568,0.132636 -0.0367,0.03789 -0.0809,0.05684 -0.13264,0.05684 -0.0518,0 -0.0966,-0.02021 -0.13453,-0.06063 -0.0367,-0.04042 -0.055,-0.08842 -0.055,-0.144005 l -0.006,-2.351453 c 0,-0.05305 0.0183,-0.09727 0.0549,-0.132636 0.0379,-0.03663 0.0821,-0.05558 0.13264,-0.05684 l 0.50402,-0.0019 h 0.0436 c 0.21727,0 0.41117,0.03221 0.5817,0.09664 0.17054,0.06316 0.30507,0.158532 0.4036,0.286115 0.0985,0.126321 0.14779,0.28359 0.14779,0.471807 0,0.121267 -0.0253,0.229271 -0.0758,0.324011 -0.0493,0.09474 -0.11432,0.174954 -0.19517,0.24064 -0.0808,0.06569 -0.168,0.116847 -0.26148,0.15348 0.0429,0.05432 0.0859,0.12127 0.12885,0.200849 0.0733,0.140215 0.14464,0.264641 0.21411,0.373276 0.0695,0.107373 0.16107,0.202113 0.27475,0.284221 0.0227,0.01516 0.0417,0.03663 0.0568,0.06442 0.0164,0.02653 0.0246,0.05621 0.0246,0.08906 z m -1.29036,-2.205552 h -0.36569 l 0.004,0.905716 0.3657,-0.0038 c 0.23244,-0.0025 0.41434,-0.0379 0.54571,-0.106109 0.13264,-0.06821 0.19895,-0.177481 0.19895,-0.327802 0,-0.154111 -0.0701,-0.270325 -0.21032,-0.348644 -0.14022,-0.07958 -0.31959,-0.119372 -0.53813,-0.119372 z"
         id="path7"
         sodipodi:nodetypes="sssccscssscccscscscccscssscccscscscccscccssccssccscccscssscscccsccsccccccccsscsccccccssscccscscscccscccssccssccscccscssccscssscccsccsscccscssssscscccssscccsccsccccccsccsccccccscsccccscsssccscccscscscccscccssccssccscccscsssscscssscccsccsscccscssssscscccssscccsccsccccccsccssssssccscssscccscscscccscssscccscscscccscccssccssccscccscsssscscccssssccscscscccsccccsssscccccscccscsccccccsccscscccccsscccccscscccscssscccsccsscccscssssscscccssscccsccsccccccsccscccsccscscscccccscsccccscscscccccccsccsssccccsccssscccscsccccsssccscscscccsccccsscsccscsccccsccscscssccscscscccsccsscccscssssscscccscscccsccsccccccsccsccscsccsssccssscccscscscccscccsssccssccscccscsssccccsssccccscsssccscccscscscccscccsssccssccscccscsssccccscsccccscscsccccsccccsssccscscscccscccccccccsccsssccscccsccscccscsssscccssccscsccccscccsssscccccscsccccccccscccccscccscscccsccsccscsccccccccccccscsc" />
    </g>
    <text
       xml:space="preserve"
       transform="scale(0.26458333)"
       id="text4"
       style="font-style:normal;font-variant:normal;font-weight:bold;font-stretch:normal;font-size:18.6667px;line-height:0;font-family:Manjari;-inkscape-font-specification:'Manjari Bold';text-align:center;writing-mode:lr-tb;direction:ltr;white-space:pre;shape-inside:url(#rect4);fill:#29577e;fill-opacity:1" />
    <text
       xml:space="preserve"
       transform="scale(0.26458333)"
       id="text6"
       style="font-style:normal;font-variant:normal;font-weight:bold;font-stretch:normal;font-size:18.6667px;line-height:0;font-family:Manjari;-inkscape-font-specification:'Manjari Bold';text-align:center;writing-mode:lr-tb;direction:ltr;white-space:pre;shape-inside:url(#rect6);fill:#29577e;fill-opacity:1" />
  </g>
</svg>
